PathFileType	4	(X/Y/Z)	Patient4_TMGait_0pt7_02_left_32.trc.trc
DataRate	CameraRate	NumFrames	NumMarkers	Units	OrigDataRate	OrigDataStartFrame	OrigNumFrames
87.500000000000	87.500000000000	6	33	mm	87.500000000000	1	       141
Frame#	Time	Sacral			L.Shoulder			Chest			R.Shoulder			Neck			R.ASIS			L.ASIS			R.Thigh.Superior			R.Thigh.Lateral			R.Thigh.Inferior			R.Patella			L.Thigh.Superior			L.Thigh.Lateral			L.Thigh.Inferior			L.Patella			L.Shank.Superior			L.Shank.Lateral			L.Shank.Inferior			R.Shank.Superior			R.Shank.Lateral			R.Shank.Inferior			R.Heel			R.Midfoot.Superior			R.Midfoot.Lateral			R.Toe			L.Heel			L.Midfoot.Lateral			L.Midfoot.Superior			L.Toe			L.Elbow			L.Wrist			R.Elbow			R.Wrist			
		X1	Y1	Z1	X2	Y2	Z2	X3	Y3	Z3	X4	Y4	Z4	X5	Y5	Z5	X6	Y6	Z6	X7	Y7	Z7	X8	Y8	Z8	X9	Y9	Z9	X10	Y10	Z10	X11	Y11	Z11	X12	Y12	Z12	X13	Y13	Z13	X14	Y14	Z14	X15	Y15	Z15	X16	Y16	Z16	X17	Y17	Z17	X18	Y18	Z18	X19	Y19	Z19	X20	Y20	Z20	X21	Y21	Z21	X22	Y22	Z22	X23	Y23	Z23	X24	Y24	Z24	X25	Y25	Z25	X26	Y26	Z26	X27	Y27	Z27	X28	Y28	Z28	X29	Y29	Z29	X30	Y30	Z30	X31	Y31	Z31	X32	Y32	Z32	X33	Y33	Z33	

1	36.570000000000	872.814321898757	1014.739536181986	522.961549235548	1056.348441456053	1431.587918560264	321.311246911507	1172.130617552937	1356.245225783662	472.376116465735	1110.135937710950	1439.280759929329	651.003755360989	1078.152160110575	1492.658117608712	474.137043902182	1104.816161579445	943.026834535695	625.078666307585	1071.156768462374	956.091936621799	353.454786981947	1144.170107876559	742.929659736140	600.289064228049	1060.732488488386	634.715898721434	656.035275691855	1137.785801677154	583.181279332112	574.844870584441	1137.782923434156	493.303576187611	578.914059168931	1144.729385592325	768.006851885292	375.837847503534	1087.896060356605	647.721169479392	296.737973191910	1190.846657370434	575.754684269352	351.783452705826	1194.445562126712	483.494868263206	341.763955669723	1116.914021425901	425.821541939335	337.195523032402	968.163659900242	410.411651901058	295.154343130296	934.287450537220	285.428702472831	349.713775633052	1105.931970577204	406.258997660149	584.176597105388	1032.193569980027	303.141151666352	643.204800813723	1070.959489126849	208.604599398130	577.392800536696	932.339654546553	46.358029287651	544.175198059446	1104.131597950900	96.784328279912	579.095636583179	1015.882234103778	37.916152779362	616.598578704107	1224.399214180715	40.131780468563	605.217625078443	740.853351015057	269.193501635354	394.905632320472	778.064384757282	203.479025672841	317.039426291538	882.144439266418	182.418233520701	333.483216254065	922.358832081223	50.742129842508	312.674433360189	1010.035477094879	1083.484921072374	208.258638358216	1133.890376531173	850.830816765539	218.930249699593	1089.530693989170	1096.315889878507	787.675545269916	1267.646651407900	912.873953315705	737.871965988096	
2	36.581428571429	871.983377242405	1015.977893653269	524.408604759701	1055.900505627789	1431.844071000760	321.879258706269	1172.372173724080	1356.244025369718	472.276778415137	1111.994313095223	1439.751892835377	651.196377663984	1079.018695818124	1493.041491520521	474.392665410475	1104.165076853892	943.621077399576	625.853762168319	1069.762010946387	956.907107043460	354.259834725708	1140.541891634008	742.593635745123	600.409150367946	1056.066604505862	635.206473633996	656.912574460905	1131.892323713856	582.710787660201	575.533470696062	1130.585884061983	493.232466295824	579.634853043623	1146.679239948676	773.423071837872	376.384031904530	1093.270698256492	651.939527186326	296.631032519244	1198.571765775428	583.072812681532	350.924615690465	1205.132916167940	490.995100632892	340.606463265368	1129.388504193365	430.975020325312	336.590218605186	981.114045947055	411.164235555180	295.156738342834	951.199121953441	285.382544469396	349.949418479916	1098.732851950535	406.348193127643	584.888865387285	1024.550020266152	303.519118670094	643.957717649134	1063.096959348948	208.842310929275	577.861003647270	923.807487747447	46.854591835995	544.317655912477	1095.973500633355	96.904583997860	579.391786794603	1007.496971819876	38.105128172114	616.764297447132	1215.940992994204	40.024853189069	605.385977326632	758.397006629987	261.987678973504	395.892235625133	798.027455443777	198.608679226283	317.387084999332	902.638055109296	181.682804345781	333.593355618884	948.076178054201	52.095880295885	311.759689901019	1002.191346957191	1083.936170236056	211.785303650492	1109.044154145208	845.180547536256	219.744850594118	1101.086916015569	1097.290272662950	788.173598934329	1288.304586499570	927.455654560507	734.152107294185	
3	36.592857142857	871.169176974322	1017.178690930665	525.809287186446	1055.473280877856	1432.098133347449	322.428821194609	1172.611469611944	1356.228290391165	472.165551685231	1113.825700989504	1440.187595879864	651.375330528926	1079.867797231399	1493.405667166867	474.647630845630	1103.517106136694	944.188265608994	626.612409184841	1068.396824100459	957.674743542597	355.040246498836	1136.934003344440	742.245525673827	600.496778707958	1051.443866010093	635.680539983303	657.764583473485	1126.030725169045	582.230993671951	576.195269774727	1123.429233391851	493.165783662065	580.330973928097	1148.559956926651	778.728404399607	376.928146020387	1098.533913268784	656.099873931585	296.493702106756	1206.094170979066	590.275314652877	350.078336110504	1215.565798027093	498.405693074803	339.461497635223	1141.642197582608	436.050838350743	335.985410954654	993.863669093962	411.753951125160	295.158188547135	967.992568201167	285.166120256288	350.159085268705	1091.581678856839	406.438118945387	585.577283356699	1016.977764038237	303.883223939059	644.694793541424	1055.313061710908	209.072871835542	578.319042817645	915.387614829388	47.330389056449	544.457201859215	1087.905133852828	97.017980828920	579.679322043694	999.214863771860	38.283590960083	616.928100883390	1207.586510773793	39.918455146386	605.550286035033	775.876876575331	254.542489692115	396.845738833758	817.920306261921	193.491743742796	317.712830415620	923.059184776736	180.739494080954	333.664173978328	973.739267843506	53.275111658621	310.810345257969	994.362933179322	1084.481837796126	215.121485272628	1084.653303762615	839.937590363080	220.633441805311	1112.501129772740	1098.271654437483	788.628320165199	1308.567459345453	941.984913081534	730.421770938060	
4	36.604285714286	870.389792335585	1018.300000847559	527.116145964102	1055.084513662701	1432.336742335288	322.941701701855	1172.852941927258	1356.165232089682	472.019668498966	1115.622729067983	1440.536066835985	651.520323482855	1080.690947968986	1493.716346614336	474.897808812661	1102.873292964348	944.685888053309	627.330856428663	1067.088444180329	958.333052018559	355.762375762647	1133.328996235055	741.850935340545	600.533785840068	1046.834010824696	636.119150356604	658.570072572585	1120.155827161842	581.717773713570	576.815237071502	1116.269798759983	493.095604049994	580.987029647755	1150.291607276021	783.797906830648	377.478875097800	1103.580181660204	660.121546570532	296.311908436601	1213.215017673307	597.227725037370	349.283322424650	1225.507429345881	505.633451482629	338.373191317325	1153.510240767767	440.973069699591	335.395145745863	1006.353128185872	411.962350499446	295.133049506916	984.758226150062	284.584840204076	350.288629468624	1084.433636995722	406.523846692019	586.223607807317	1009.450994984433	304.216833770068	645.400037700262	1047.590279052090	209.286893329900	578.758083171280	907.095831479017	47.758765610370	544.591618395182	1079.921782883756	97.117515649147	579.949150064557	991.043040093861	38.439589510552	617.087532728512	1199.346018879781	39.817069142344	605.705338640995	793.541816285654	246.491446727740	397.668098924983	838.003908660902	187.825154239902	317.933197534857	943.616059958990	179.383953758533	333.618899860317	999.621456630261	54.207870693125	309.758035569959	986.489253395016	1085.242786135866	218.098169804286	1061.009200420588	835.503453300031	221.717922143374	1123.740926085115	1099.279100772405	788.974333055025	1328.133332619431	956.580757820947	726.608913403817	
5	36.615714285714	869.668410282265	1019.303185098817	528.291807661368	1054.746070051309	1432.544467369495	323.403081114947	1173.101645239861	1356.023136994363	471.818036396819	1117.383162863054	1440.750552385054	651.613280578160	1081.483168466558	1493.940678057263	475.137538103628	1102.235172406110	945.073202379458	627.985915281171	1065.858997556435	958.828711222923	356.395871715742	1129.710717360757	741.373560948483	600.515536161471	1042.189232520925	636.505140778166	659.312636528216	1114.210976089705	581.145635495036	577.388520756638	1109.050257551624	493.010665157734	581.596554055559	1151.806723158849	788.521568673140	378.050429881034	1108.324001640732	663.930103340584	296.082726292450	1219.772486181793	603.808165889945	348.582568462446	1234.765961614253	512.591922724272	337.386218750436	1164.865486389670	445.675258358157	334.830763112788	1018.562724732807	411.602650118000	295.058078253814	1001.613854493799	283.482291972337	350.280688389496	1077.228035364092	406.599545981277	586.815127162513	1001.922343879745	304.504544894523	646.057914328089	1039.889400154796	209.475886423361	579.170749223367	898.922353665274	48.114747836925	544.722055190244	1071.997748740389	97.197737798588	580.193276001669	982.964501092500	38.562496895171	617.239883115033	1191.204758933105	39.725373936709	605.846886410849	811.673231162139	237.524984314848	398.266687964523	858.562603084903	181.369833910690	317.961119910096	964.533532755697	177.463738667901	333.377631494895	1026.000243038257	54.874048438722	308.520237233261	978.508612117313	1086.319558458940	220.589160197812	1038.322063945576	832.179906351754	223.109578752381	1134.803026752631	1100.329375192484	789.153666756171	1346.771038879872	971.373184037416	722.641595964532	
6	36.627142857143	869.031212732938	1020.154921491274	529.310066201872	1054.463269006055	1432.704214561445	323.802103656616	1173.362721427657	1355.773752691286	471.543181310869	1119.107967621905	1440.792899421435	651.639547793183	1082.242513947939	1494.049298637103	475.359570432764	1101.606179597078	945.314116025254	628.554198535807	1064.725837464953	959.120622421244	356.914879165124	1126.069681198781	740.778715018135	600.452003206042	1037.455354624371	636.823923657950	659.981093118030	1108.142443351096	580.491090668263	577.919852266239	1101.716828235734	492.896670866257	582.161112526363	1153.053543536740	792.804839856834	378.658705007556	1112.698158318885	667.453856162273	295.816467741416	1225.645291517505	609.904136848129	348.021338810395	1243.197017527410	519.195304795040	336.545312051043	1175.612001112419	450.096990727585	334.303003272333	1030.499394724858	410.537357430832	294.912605197772	1018.669556900268	281.758811783393	350.080322448543	1069.904825951307	406.658421403845	587.344769232691	994.338060941014	304.733576382747	646.654549383800	1032.163930239636	209.632249113280	579.550697361461	890.843187127250	48.376938573089	544.852000901001	1064.098798331022	97.254916948578	580.404985920843	974.949999902958	38.643935481210	617.382032468186	1183.135134139515	39.648210708176	605.971787395436	830.536085706291	227.436299780593	398.556746829012	879.852282792149	173.988034445077	317.711471779776	986.003086004213	174.900969491544	332.866297059375	1053.093340828344	55.314738744787	307.015115530361	970.378043591328	1087.780384706208	222.522422981910	1016.731789039310	830.143170212895	224.896516892698	1145.697982813596	1101.433968267468	789.119695966927	1364.312797559256	986.468809297207	718.460329823940	
